<svg xmlns="http://www.w3.org/2000/svg" width="64" height="64" viewBox="0 0 64 64">
  <!-- Point-cloud style "CY" monogram. Replace with a GPT-generated raster later if desired. -->
  <rect width="64" height="64" rx="10" fill="#1772d0"/>
  <g fill="#ffffff">
    <!-- Letter C (point cloud) -->
    <circle cx="14" cy="19" r="1.7"/>
    <circle cx="18" cy="17.5" r="1.7"/>
    <circle cx="22" cy="17.5" r="1.7"/>
    <circle cx="26" cy="19" r="1.7" opacity="0.85"/>
    <circle cx="11" cy="23" r="1.7"/>
    <circle cx="10" cy="27" r="1.7"/>
    <circle cx="10" cy="31" r="1.7"/>
    <circle cx="10" cy="35" r="1.7"/>
    <circle cx="11" cy="39" r="1.7"/>
    <circle cx="14" cy="43" r="1.7"/>
    <circle cx="18" cy="45.5" r="1.7"/>
    <circle cx="22" cy="45.5" r="1.7"/>
    <circle cx="26" cy="44" r="1.7" opacity="0.85"/>
    <!-- Letter Y (point cloud) -->
    <circle cx="36" cy="18" r="1.7"/>
    <circle cx="39" cy="22" r="1.7"/>
    <circle cx="42" cy="26" r="1.7"/>
    <circle cx="52" cy="18" r="1.7"/>
    <circle cx="49" cy="22" r="1.7"/>
    <circle cx="46" cy="26" r="1.7"/>
    <circle cx="44" cy="30" r="1.7"/>
    <circle cx="44" cy="34" r="1.7"/>
    <circle cx="44" cy="38" r="1.7"/>
    <circle cx="44" cy="42" r="1.7"/>
    <circle cx="44" cy="46" r="1.7"/>
  </g>
  <!-- Scattered faint points to evoke a 3D point cloud -->
  <g fill="#bcd6f4">
    <circle cx="31" cy="12" r="1" opacity="0.7"/>
    <circle cx="56" cy="33" r="1" opacity="0.7"/>
    <circle cx="33" cy="52" r="1" opacity="0.7"/>
    <circle cx="20" cy="53" r="1" opacity="0.6"/>
    <circle cx="53" cy="50" r="1" opacity="0.6"/>
    <circle cx="7" cy="50" r="1" opacity="0.55"/>
  </g>
</svg>
