<svg fill="#1772d0" role="img" viewBox="0 0 24 24" xmlns="http://www.w3.org/2000/svg"><title>BibTeX</title><path d="M8.5 3C6.8 3 6 3.9 6 5.6V8c0 1-.5 1.5-1.5 1.5H4v2h.5C5.5 11.5 6 12 6 13v2.4C6 17.1 6.8 18 8.5 18H10v-2H9c-.7 0-1-.3-1-1v-2.2c0-1-.4-1.7-1.2-2C7.6 12.5 8 11.8 8 10.8V6c0-.7.3-1 1-1h1V3H8.5Zm7 0v2h1c.7 0 1 .3 1 1v1.8c0 1 .4 1.7 1.2 2-.8.3-1.2 1-1.2 2V15c0 .7-.3 1-1 1h-1v2h1.5c1.7 0 2.5-.9 2.5-2.6V13c0-1 .5-1.5 1.5-1.5h.5v-2H20c-1 0-1.5-.5-1.5-1.5V5.6C18.5 3.9 17.7 3 16 3h-.5Z"/></svg>
